<?xml version="1.0" encoding="utf-8"?>
<!-- Generator: Adobe Illustrator 16.0.0, SVG Export Plug-In . SVG Version: 6.00 Build 0)  -->
<!DOCTYPE svg PUBLIC "-//W3C//DTD SVG 1.1//EN" "http://www.w3.org/Graphics/SVG/1.1/DTD/svg11.dtd">
<svg version="1.1" xmlns="http://www.w3.org/2000/svg" xmlns:xlink="http://www.w3.org/1999/xlink" x="0px" y="0px" width="512px"
	 height="512px" viewBox="0 0 512 512" enable-background="new 0 0 512 512" xml:space="preserve">
<g id="Calque_1">
	<circle cx="256" cy="256" r="256"/>
	<path fill="#FFFFFF" d="M353.738,375.039c-0.521,1.825-1.303,3.29-2.344,4.395c-1.044,1.107-2.475,1.953-4.297,2.539
		c-1.825,0.586-4.071,1.007-6.738,1.27c-2.67,0.26-5.957,0.391-9.863,0.391c-4.037,0-7.455-0.131-10.254-0.391
		c-2.802-0.263-5.111-0.684-6.934-1.27c-1.825-0.586-3.192-1.432-4.102-2.539c-0.912-1.104-1.63-2.569-2.148-4.395l-52.93-190.82
		h-0.391l-48.828,190.82c-0.391,1.825-1.044,3.29-1.953,4.395c-0.913,1.107-2.216,1.953-3.906,2.539
		c-1.694,0.586-3.876,1.007-6.543,1.27c-2.67,0.26-6.088,0.391-10.254,0.391c-4.297,0-7.88-0.131-10.742-0.391
		c-2.866-0.263-5.209-0.684-7.031-1.27c-1.825-0.586-3.223-1.432-4.199-2.539c-0.977-1.104-1.66-2.569-2.051-4.395L91.434,141.641
		c-0.781-2.994-1.206-5.337-1.27-7.031c-0.067-1.69,0.455-2.994,1.563-3.906c1.104-0.909,2.896-1.495,5.371-1.758
		c2.472-0.259,5.792-0.391,9.961-0.391c4.034,0,7.227,0.098,9.57,0.293s4.132,0.556,5.371,1.074
		c1.236,0.522,2.081,1.239,2.539,2.148c0.455,0.913,0.812,2.084,1.074,3.516l56.836,211.719h0.195l53.906-211.328
		c0.391-1.431,0.879-2.637,1.465-3.613s1.529-1.724,2.832-2.246c1.3-0.519,3.155-0.909,5.566-1.172
		c2.408-0.259,5.566-0.391,9.473-0.391c3.644,0,6.543,0.131,8.691,0.391c2.148,0.263,3.873,0.653,5.176,1.172
		c1.3,0.522,2.246,1.27,2.832,2.246s1.074,2.182,1.465,3.613l58.008,211.328h0.391l55.664-211.523
		c0.391-1.3,0.781-2.441,1.172-3.418s1.202-1.724,2.441-2.246c1.236-0.519,2.994-0.909,5.273-1.172
		c2.276-0.259,5.304-0.391,9.082-0.391c3.906,0,6.998,0.165,9.277,0.488c2.276,0.327,3.937,0.946,4.98,1.855
		c1.041,0.913,1.529,2.216,1.465,3.906c-0.067,1.694-0.424,4.038-1.074,7.031L353.738,375.039z"/>
	<rect x="211" y="256" fill="#FFFFFF" width="90" height="28"/>
</g>
<g id="droit">
	<line fill="none" stroke="#000000" stroke-width="3" stroke-miterlimit="10" x1="182.5" y1="399" x2="182.5" y2="250"/>
	<line stroke="#000000" stroke-width="3" stroke-miterlimit="10" x1="332.5" y1="424" x2="332.5" y2="275"/>
</g>
</svg>
